<svg version="1.1" preserveAspectRatio="none" xmlns="http://www.w3.org/2000/svg" width="500" height="500" viewBox="0 0 500 500"><rect width="100%" height="100%" fill="#101010" fill-opacity="1"/><svg viewBox="41.5712 169.2116 422.1985 29" width="333" height="22.873127213857938" x="83.5px" y="238.5634px" xmlns="http://www.w3.org/2000/svg" xmlns:xlink="http://www.w3.org/1999/xlink" preserveAspectRatio="none"><defs></defs><style>.aRWrrEA-PR0filter-floo {flood-color:#E9B0D6;flood-opacity:0.5;}.ashadowKAHWCXlsFr-floo {flood-color:#434BE7;flood-opacity:1;}.ashadown8knpPdgS0-floo {flood-color:#434BE7;flood-opacity:0.89;}.compantTranparent {fill:#F55139;fill-opacity:0;}.companyName-str {stroke:#FFFFFF;stroke-opacity:1;}.shape {fill:#253EE7;fill-opacity:1;}.shapeStroke-str {stroke:#F3F3F3;stroke-opacity:1;}</style><defs>
      <filter
        x="46.5695"
        y="174.2116"
        width="417.2002"
        height="24"
        id="ikYEXSHZT"
        filterUnits="userSpaceOnUse"
        primitiveUnits="userSpaceOnUse"
        color-interpolation-filters="sRGB">
        <feMerge><feMergeNode in="SourceGraphic" /></feMerge>
      </filter>
      <filter
        x="41.5712"
        y="169.2116"
        width="417.1968"
        height="24"
        id="tUk6sjh6M"
        filterUnits="userSpaceOnUse"
        primitiveUnits="userSpaceOnUse"
        color-interpolation-filters="sRGB">
        <feMerge><feMergeNode in="SourceGraphic" /></feMerge>
      </filter></defs><g opacity="1" transform="rotate(0 46.5695 174.2116)">
<svg width="417.2002" height="24" x="46.5695" y="174.2116" version="1.1" preserveAspectRatio="none" viewBox="-0.8 -28.56 506.2 29.12">
  <g transform="matrix(1 0 0 1 0 0)" class="shape"><path id="id-BEGfasMba19" d="M28.52-28L17.80-10.04L17.80 0L9.88 0L9.88-10.16L-0.80-28L7.56-28L14.20-16.88L20.84-28L28.52-28Z M49.72 0L47.52-5.44L35.68-5.44L33.48 0L25.40 0L37.76-28L45.56-28L57.96 0L49.72 0ZM38-11.28L45.20-11.28L41.60-20.24L38-11.28Z M71.84 0L71.84-28L79.76-28L79.76-6.28L93.12-6.28L93.12 0L71.84 0Z M109.92 0.56Q105.48 0.56 101.94-1.32Q98.40-3.20 96.38-6.52Q94.36-9.84 94.36-14L94.36-14Q94.36-18.16 96.38-21.48Q98.40-24.80 101.94-26.68Q105.48-28.56 109.92-28.56L109.92-28.56Q114.36-28.56 117.90-26.68Q121.44-24.80 123.46-21.48Q125.48-18.16 125.48-14L125.48-14Q125.48-9.84 123.46-6.52Q121.44-3.20 117.90-1.32Q114.36 0.56 109.92 0.56L109.92 0.56ZM109.92-6Q112.04-6 113.76-7Q115.48-8 116.48-9.82Q117.48-11.64 117.48-14L117.48-14Q117.48-16.36 116.48-18.18Q115.48-20 113.76-21Q112.04-22 109.92-22L109.92-22Q107.80-22 106.08-21Q104.36-20 103.36-18.18Q102.36-16.36 102.36-14L102.36-14Q102.36-11.64 103.36-9.82Q104.36-8 106.08-7Q107.80-6 109.92-6L109.92-6Z M151.12 0.56Q147.72 0.56 144.52-0.28Q141.32-1.12 139.32-2.52L139.32-2.52L141.92-8.36Q143.80-7.12 146.28-6.36Q148.76-5.60 151.16-5.60L151.16-5.60Q155.72-5.60 155.72-7.88L155.72-7.88Q155.72-9.08 154.42-9.66Q153.12-10.24 150.24-10.88L150.24-10.88Q147.08-11.56 144.96-12.34Q142.84-13.12 141.32-14.84Q139.80-16.56 139.80-19.48L139.80-19.48Q139.80-22.04 141.20-24.10Q142.60-26.16 145.38-27.36Q148.16-28.56 152.20-28.56L152.20-28.56Q154.96-28.56 157.64-27.94Q160.32-27.32 162.36-26.12L162.36-26.12L159.92-20.24Q155.92-22.40 152.16-22.40L152.16-22.40Q149.80-22.40 148.72-21.70Q147.64-21 147.64-19.88L147.64-19.88Q147.64-18.76 148.92-18.20Q150.20-17.64 153.04-17.04L153.04-17.04Q156.24-16.36 158.34-15.58Q160.44-14.80 161.98-13.10Q163.52-11.40 163.52-8.48L163.52-8.48Q163.52-5.96 162.12-3.92Q160.72-1.88 157.92-0.66Q155.12 0.56 151.12 0.56L151.12 0.56Z M181.28 0.56Q176.84 0.56 173.30-1.32Q169.76-3.20 167.74-6.52Q165.72-9.84 165.72-14L165.72-14Q165.72-18.16 167.74-21.48Q169.76-24.80 173.30-26.68Q176.84-28.56 181.28-28.56L181.28-28.56Q185.72-28.56 189.26-26.68Q192.80-24.80 194.82-21.48Q196.84-18.16 196.84-14L196.84-14Q196.84-9.84 194.82-6.52Q192.80-3.20 189.26-1.32Q185.72 0.56 181.28 0.56L181.28 0.56ZM181.28-6Q183.40-6 185.12-7Q186.84-8 187.84-9.82Q188.84-11.64 188.84-14L188.84-14Q188.84-16.36 187.84-18.18Q186.84-20 185.12-21Q183.40-22 181.28-22L181.28-22Q179.16-22 177.44-21Q175.72-20 174.72-18.18Q173.72-16.36 173.72-14L173.72-14Q173.72-11.64 174.72-9.82Q175.72-8 177.44-7Q179.16-6 181.28-6L181.28-6Z M201.00 0L201.00-28L208.92-28L208.92-6.28L222.28-6.28L222.28 0L201.00 0Z M238.04 0.56Q231.80 0.56 228.34-2.84Q224.88-6.24 224.88-12.48L224.88-12.48L224.88-28L232.80-28L232.80-12.72Q232.80-6 238.12-6L238.12-6Q243.40-6 243.40-12.72L243.40-12.72L243.40-28L251.20-28L251.20-12.48Q251.20-6.24 247.74-2.84Q244.28 0.56 238.04 0.56L238.04 0.56Z M270.52 0.56Q266.12 0.56 262.62-1.30Q259.12-3.16 257.12-6.48Q255.12-9.80 255.12-14L255.12-14Q255.12-18.20 257.12-21.52Q259.12-24.84 262.62-26.70Q266.12-28.56 270.52-28.56L270.52-28.56Q274.36-28.56 277.44-27.20Q280.52-25.84 282.56-23.28L282.56-23.28L277.52-18.72Q274.80-22 270.92-22L270.92-22Q268.64-22 266.86-21Q265.08-20 264.10-18.18Q263.12-16.36 263.12-14L263.12-14Q263.12-11.64 264.10-9.82Q265.08-8 266.86-7Q268.64-6 270.92-6L270.92-6Q274.80-6 277.52-9.28L277.52-9.28L282.56-4.72Q280.52-2.16 277.44-0.80Q274.36 0.56 270.52 0.56L270.52 0.56Z M286.08 0L286.08-28L294.00-28L294.00 0L286.08 0Z M313.76 0.56Q309.32 0.56 305.78-1.32Q302.24-3.20 300.22-6.52Q298.20-9.84 298.20-14L298.20-14Q298.20-18.16 300.22-21.48Q302.24-24.80 305.78-26.68Q309.32-28.56 313.76-28.56L313.76-28.56Q318.20-28.56 321.74-26.68Q325.28-24.80 327.30-21.48Q329.32-18.16 329.32-14L329.32-14Q329.32-9.84 327.30-6.52Q325.28-3.20 321.74-1.32Q318.20 0.56 313.76 0.56L313.76 0.56ZM313.76-6Q315.88-6 317.60-7Q319.32-8 320.32-9.82Q321.32-11.64 321.32-14L321.32-14Q321.32-16.36 320.32-18.18Q319.32-20 317.60-21Q315.88-22 313.76-22L313.76-22Q311.64-22 309.92-21Q308.20-20 307.20-18.18Q306.20-16.36 306.20-14L306.20-14Q306.20-11.64 307.20-9.82Q308.20-8 309.92-7Q311.64-6 313.76-6L313.76-6Z M352.36-28L360.12-28L360.12 0L353.60 0L341.24-14.92L341.24 0L333.48 0L333.48-28L340.00-28L352.36-13.08L352.36-28Z M379.84 0.56Q375.40 0.56 371.86-1.32Q368.32-3.20 366.30-6.52Q364.28-9.84 364.28-14L364.28-14Q364.28-18.16 366.30-21.48Q368.32-24.80 371.86-26.68Q375.40-28.56 379.84-28.56L379.84-28.56Q384.28-28.56 387.82-26.68Q391.36-24.80 393.38-21.48Q395.40-18.16 395.40-14L395.40-14Q395.40-9.84 393.38-6.52Q391.36-3.20 387.82-1.32Q384.28 0.56 379.84 0.56L379.84 0.56ZM379.84-6Q381.96-6 383.68-7Q385.40-8 386.40-9.82Q387.40-11.64 387.40-14L387.40-14Q387.40-16.36 386.40-18.18Q385.40-20 383.68-21Q381.96-22 379.84-22L379.84-22Q377.72-22 376.00-21Q374.28-20 373.28-18.18Q372.28-16.36 372.28-14L372.28-14Q372.28-11.64 373.28-9.82Q374.28-8 376.00-7Q377.72-6 379.84-6L379.84-6Z M401.60 0.36Q399.68 0.36 398.36-0.92Q397.04-2.20 397.04-4.16L397.04-4.16Q397.04-6.16 398.34-7.40Q399.64-8.64 401.60-8.64L401.60-8.64Q403.60-8.64 404.88-7.40Q406.16-6.16 406.16-4.16L406.16-4.16Q406.16-2.20 404.86-0.92Q403.56 0.36 401.60 0.36L401.60 0.36Z M424.04 0.56Q419.64 0.56 416.14-1.30Q412.64-3.16 410.64-6.48Q408.64-9.80 408.64-14L408.64-14Q408.64-18.20 410.64-21.52Q412.64-24.84 416.14-26.70Q419.64-28.56 424.04-28.56L424.04-28.56Q427.88-28.56 430.96-27.20Q434.04-25.84 436.08-23.28L436.08-23.28L431.04-18.72Q428.32-22 424.44-22L424.44-22Q422.16-22 420.38-21Q418.60-20 417.62-18.18Q416.64-16.36 416.64-14L416.64-14Q416.64-11.64 417.62-9.82Q418.60-8 420.38-7Q422.16-6 424.44-6L424.44-6Q428.32-6 431.04-9.28L431.04-9.28L436.08-4.72Q434.04-2.16 430.96-0.80Q427.88 0.56 424.04 0.56L424.04 0.56Z M453.12 0.56Q448.68 0.56 445.14-1.32Q441.60-3.20 439.58-6.52Q437.56-9.84 437.56-14L437.56-14Q437.56-18.16 439.58-21.48Q441.60-24.80 445.14-26.68Q448.68-28.56 453.12-28.56L453.12-28.56Q457.56-28.56 461.10-26.68Q464.64-24.80 466.66-21.48Q468.68-18.16 468.68-14L468.68-14Q468.68-9.84 466.66-6.52Q464.64-3.20 461.10-1.32Q457.56 0.56 453.12 0.56L453.12 0.56ZM453.12-6Q455.24-6 456.96-7Q458.68-8 459.68-9.82Q460.68-11.64 460.68-14L460.68-14Q460.68-16.36 459.68-18.18Q458.68-20 456.96-21Q455.24-22 453.12-22L453.12-22Q451.00-22 449.28-21Q447.56-20 446.56-18.18Q445.56-16.36 445.56-14L445.56-14Q445.56-11.64 446.56-9.82Q447.56-8 449.28-7Q451.00-6 453.12-6L453.12-6Z M505.40 0L498.12 0L498.04-14.84L490.84-2.76L487.32-2.76L480.16-14.44L480.16 0L472.84 0L472.84-28L479.36-28L489.20-11.84L498.80-28L505.32-28L505.40 0Z"/></g>
</svg>
</g><g opacity="1" transform="rotate(0 41.5712 169.2116)">
<svg width="417.1968" height="24" x="41.5712" y="169.2116" version="1.1" preserveAspectRatio="none" viewBox="-0.8 -28.56 506.2 29.12">
  <g transform="matrix(1 0 0 1 0 0)" class="compantTranparent"><defs><path id="id-D6z1nYkh19" d="M28.52-28L17.80-10.04L17.80 0L9.88 0L9.88-10.16L-0.80-28L7.56-28L14.20-16.88L20.84-28L28.52-28Z M49.72 0L47.52-5.44L35.68-5.44L33.48 0L25.40 0L37.76-28L45.56-28L57.96 0L49.72 0ZM38-11.28L45.20-11.28L41.60-20.24L38-11.28Z M71.84 0L71.84-28L79.76-28L79.76-6.28L93.12-6.28L93.12 0L71.84 0Z M109.92 0.56Q105.48 0.56 101.94-1.32Q98.40-3.20 96.38-6.52Q94.36-9.84 94.36-14L94.36-14Q94.36-18.16 96.38-21.48Q98.40-24.80 101.94-26.68Q105.48-28.56 109.92-28.56L109.92-28.56Q114.36-28.56 117.90-26.68Q121.44-24.80 123.46-21.48Q125.48-18.16 125.48-14L125.48-14Q125.48-9.84 123.46-6.52Q121.44-3.20 117.90-1.32Q114.36 0.56 109.92 0.56L109.92 0.56ZM109.92-6Q112.04-6 113.76-7Q115.48-8 116.48-9.82Q117.48-11.64 117.48-14L117.48-14Q117.48-16.36 116.48-18.18Q115.48-20 113.76-21Q112.04-22 109.92-22L109.92-22Q107.80-22 106.08-21Q104.36-20 103.36-18.18Q102.36-16.36 102.36-14L102.36-14Q102.36-11.64 103.36-9.82Q104.36-8 106.08-7Q107.80-6 109.92-6L109.92-6Z M151.12 0.56Q147.72 0.56 144.52-0.28Q141.32-1.12 139.32-2.52L139.32-2.52L141.92-8.36Q143.80-7.12 146.28-6.36Q148.76-5.60 151.16-5.60L151.16-5.60Q155.72-5.60 155.72-7.88L155.72-7.88Q155.72-9.08 154.42-9.66Q153.12-10.24 150.24-10.88L150.24-10.88Q147.08-11.56 144.96-12.34Q142.84-13.12 141.32-14.84Q139.80-16.56 139.80-19.48L139.80-19.48Q139.80-22.04 141.20-24.10Q142.60-26.16 145.38-27.36Q148.16-28.56 152.20-28.56L152.20-28.56Q154.96-28.56 157.64-27.94Q160.32-27.32 162.36-26.12L162.36-26.12L159.92-20.24Q155.92-22.40 152.16-22.40L152.16-22.40Q149.80-22.40 148.72-21.70Q147.64-21 147.64-19.88L147.64-19.88Q147.64-18.76 148.92-18.20Q150.20-17.64 153.04-17.04L153.04-17.04Q156.24-16.36 158.34-15.58Q160.44-14.80 161.98-13.10Q163.52-11.40 163.52-8.48L163.52-8.48Q163.52-5.96 162.12-3.92Q160.72-1.88 157.92-0.66Q155.12 0.56 151.12 0.56L151.12 0.56Z M181.28 0.56Q176.84 0.56 173.30-1.32Q169.76-3.20 167.74-6.52Q165.72-9.84 165.72-14L165.72-14Q165.72-18.16 167.74-21.48Q169.76-24.80 173.30-26.68Q176.84-28.56 181.28-28.56L181.28-28.56Q185.72-28.56 189.26-26.68Q192.80-24.80 194.82-21.48Q196.84-18.16 196.84-14L196.84-14Q196.84-9.84 194.82-6.52Q192.80-3.20 189.26-1.32Q185.72 0.56 181.28 0.56L181.28 0.56ZM181.28-6Q183.40-6 185.12-7Q186.84-8 187.84-9.82Q188.84-11.64 188.84-14L188.84-14Q188.84-16.36 187.84-18.18Q186.84-20 185.12-21Q183.40-22 181.28-22L181.28-22Q179.16-22 177.44-21Q175.72-20 174.72-18.18Q173.72-16.36 173.72-14L173.72-14Q173.72-11.64 174.72-9.82Q175.72-8 177.44-7Q179.16-6 181.28-6L181.28-6Z M201.00 0L201.00-28L208.92-28L208.92-6.28L222.28-6.28L222.28 0L201.00 0Z M238.04 0.56Q231.80 0.56 228.34-2.84Q224.88-6.24 224.88-12.48L224.88-12.48L224.88-28L232.80-28L232.80-12.72Q232.80-6 238.12-6L238.12-6Q243.40-6 243.40-12.72L243.40-12.72L243.40-28L251.20-28L251.20-12.48Q251.20-6.24 247.74-2.84Q244.28 0.56 238.04 0.56L238.04 0.56Z M270.52 0.56Q266.12 0.56 262.62-1.30Q259.12-3.16 257.12-6.48Q255.12-9.80 255.12-14L255.12-14Q255.12-18.20 257.12-21.52Q259.12-24.84 262.62-26.70Q266.12-28.56 270.52-28.56L270.52-28.56Q274.36-28.56 277.44-27.20Q280.52-25.84 282.56-23.28L282.56-23.28L277.52-18.72Q274.80-22 270.92-22L270.92-22Q268.64-22 266.86-21Q265.08-20 264.10-18.18Q263.12-16.36 263.12-14L263.12-14Q263.12-11.64 264.10-9.82Q265.08-8 266.86-7Q268.64-6 270.92-6L270.92-6Q274.80-6 277.52-9.28L277.52-9.28L282.56-4.72Q280.52-2.16 277.44-0.80Q274.36 0.56 270.52 0.56L270.52 0.56Z M286.08 0L286.08-28L294.00-28L294.00 0L286.08 0Z M313.76 0.56Q309.32 0.56 305.78-1.32Q302.24-3.20 300.22-6.52Q298.20-9.84 298.20-14L298.20-14Q298.20-18.16 300.22-21.48Q302.24-24.80 305.78-26.68Q309.32-28.56 313.76-28.56L313.76-28.56Q318.20-28.56 321.74-26.68Q325.28-24.80 327.30-21.48Q329.32-18.16 329.32-14L329.32-14Q329.32-9.84 327.30-6.52Q325.28-3.20 321.74-1.32Q318.20 0.56 313.76 0.56L313.76 0.56ZM313.76-6Q315.88-6 317.60-7Q319.32-8 320.32-9.82Q321.32-11.64 321.32-14L321.32-14Q321.32-16.36 320.32-18.18Q319.32-20 317.60-21Q315.88-22 313.76-22L313.76-22Q311.64-22 309.92-21Q308.20-20 307.20-18.18Q306.20-16.36 306.20-14L306.20-14Q306.20-11.64 307.20-9.82Q308.20-8 309.92-7Q311.64-6 313.76-6L313.76-6Z M352.36-28L360.12-28L360.12 0L353.60 0L341.24-14.92L341.24 0L333.48 0L333.48-28L340.00-28L352.36-13.08L352.36-28Z M379.84 0.56Q375.40 0.56 371.86-1.32Q368.32-3.20 366.30-6.52Q364.28-9.84 364.28-14L364.28-14Q364.28-18.16 366.30-21.48Q368.32-24.80 371.86-26.68Q375.40-28.56 379.84-28.56L379.84-28.56Q384.28-28.56 387.82-26.68Q391.36-24.80 393.38-21.48Q395.40-18.16 395.40-14L395.40-14Q395.40-9.84 393.38-6.52Q391.36-3.20 387.82-1.32Q384.28 0.56 379.84 0.56L379.84 0.56ZM379.84-6Q381.96-6 383.68-7Q385.40-8 386.40-9.82Q387.40-11.64 387.40-14L387.40-14Q387.40-16.36 386.40-18.18Q385.40-20 383.68-21Q381.96-22 379.84-22L379.84-22Q377.72-22 376.00-21Q374.28-20 373.28-18.18Q372.28-16.36 372.28-14L372.28-14Q372.28-11.64 373.28-9.82Q374.28-8 376.00-7Q377.72-6 379.84-6L379.84-6Z M401.60 0.36Q399.68 0.36 398.36-0.92Q397.04-2.20 397.04-4.16L397.04-4.16Q397.04-6.16 398.34-7.40Q399.64-8.64 401.60-8.64L401.60-8.64Q403.60-8.64 404.88-7.40Q406.16-6.16 406.16-4.16L406.16-4.16Q406.16-2.20 404.86-0.92Q403.56 0.36 401.60 0.36L401.60 0.36Z M424.04 0.56Q419.64 0.56 416.14-1.30Q412.64-3.16 410.64-6.48Q408.64-9.80 408.64-14L408.64-14Q408.64-18.20 410.64-21.52Q412.64-24.84 416.14-26.70Q419.64-28.56 424.04-28.56L424.04-28.56Q427.88-28.56 430.96-27.20Q434.04-25.84 436.08-23.28L436.08-23.28L431.04-18.72Q428.32-22 424.44-22L424.44-22Q422.16-22 420.38-21Q418.60-20 417.62-18.18Q416.64-16.36 416.64-14L416.64-14Q416.64-11.64 417.62-9.82Q418.60-8 420.38-7Q422.16-6 424.44-6L424.44-6Q428.32-6 431.04-9.28L431.04-9.28L436.08-4.72Q434.04-2.16 430.96-0.80Q427.88 0.56 424.04 0.56L424.04 0.56Z M453.12 0.56Q448.68 0.56 445.14-1.32Q441.60-3.20 439.58-6.52Q437.56-9.84 437.56-14L437.56-14Q437.56-18.16 439.58-21.48Q441.60-24.80 445.14-26.68Q448.68-28.56 453.12-28.56L453.12-28.56Q457.56-28.56 461.10-26.68Q464.64-24.80 466.66-21.48Q468.68-18.16 468.68-14L468.68-14Q468.68-9.84 466.66-6.52Q464.64-3.20 461.10-1.32Q457.56 0.56 453.12 0.56L453.12 0.56ZM453.12-6Q455.24-6 456.96-7Q458.68-8 459.68-9.82Q460.68-11.64 460.68-14L460.68-14Q460.68-16.36 459.68-18.18Q458.68-20 456.96-21Q455.24-22 453.12-22L453.12-22Q451.00-22 449.28-21Q447.56-20 446.56-18.18Q445.56-16.36 445.56-14L445.56-14Q445.56-11.64 446.56-9.82Q447.56-8 449.28-7Q451.00-6 453.12-6L453.12-6Z M505.40 0L498.12 0L498.04-14.84L490.84-2.76L487.32-2.76L480.16-14.44L480.16 0L472.84 0L472.84-28L479.36-28L489.20-11.84L498.80-28L505.32-28L505.40 0Z"/></defs>
  <clipPath id="id-D6z1nYkh19-clip"><use xlink:href="#id-D6z1nYkh19" /></clipPath>
  <g clip-path="url(#id-D6z1nYkh19-clip)"><use xlink:href="#id-D6z1nYkh19" class="companyName-str" style="stroke-width:2;"/></g>
  </g>
</svg>
</g></svg></svg>